<svg width="588" height="431" viewBox="0 0 588 431" fill="none" xmlns="http://www.w3.org/2000/svg">
<path d="M223.438 81.8121L218.824 83.2278L215.727 76.0537L208.726 77.2916L205.53 72.3037L203.006 73.9236L207.278 80.5939L213.913 79.4218L217.139 86.8856L224.08 84.7521L223.438 81.8121Z" fill="#50BFA5"/>
<path d="M519.3 339.837L514.689 341.253L511.588 334.079L504.588 335.317L501.392 330.329L498.867 331.949L503.143 338.619L509.775 337.447L513 344.911L519.942 342.778L519.3 339.837Z" fill="#50BFA5"/>
<path d="M195.012 424.771C195.012 424.771 170.393 341.303 168.418 322.892C166.444 304.481 180.211 310.183 180.211 310.183C180.211 310.183 168.629 275.1 177.002 266.774C185.375 258.447 192.932 273.967 192.932 273.967C192.932 273.967 195.467 231.377 204.396 231.364C221.024 231.335 220.698 277.81 220.698 277.81C220.698 277.81 224.94 259.616 233.863 264.604C247.292 272.127 228.034 308.59 228.034 308.59C228.034 308.59 245.149 308.59 251.156 317.236C261.925 332.72 195.012 424.771 195.012 424.771Z" fill="#50BFA5"/>
<path d="M203.059 413.725C203.059 413.725 132.088 401.853 116.651 389.273C101.215 376.693 116.493 371.023 116.493 371.023C116.493 371.023 80.8414 352.741 81.2529 340.309C81.6643 327.877 99.3783 334.198 99.3783 334.198C99.3783 334.198 69.3382 299.931 76.4508 293.422C89.6951 281.303 124.425 316.923 124.425 316.923C124.425 316.923 114.114 299.984 124.975 297.3C141.353 293.261 153.438 335.028 153.438 335.028C153.438 335.028 150.368 318.533 161.667 320.732C181.925 324.673 203.059 413.725 203.059 413.725Z" fill="#50BFA5"/>
<path d="M161.66 320.732C150.341 318.684 153.431 335.028 153.431 335.028C153.431 335.028 141.346 293.261 124.968 297.3C114.107 299.984 124.418 316.923 124.418 316.923C124.418 316.923 89.6948 281.306 76.457 293.422L202.844 413.745C200.57 402.251 180.641 324.163 161.66 320.732Z" fill="#3C8F7C"/>
<path d="M223.251 423.516C223.251 423.516 185.875 385.496 167.055 381.535C148.235 377.574 151.619 390.971 151.619 390.971C151.619 390.971 114.275 358.304 105.619 366.219C96.9629 374.134 106.327 381.775 106.327 381.775C106.327 381.775 75.2204 376.264 70.7804 386.474C63.9377 402.162 115.095 410.702 115.095 410.702C115.095 410.702 93.6551 412.19 98.6382 422.028C106.116 436.863 223.251 423.516 223.251 423.516Z" fill="#355389"/>
<path d="M70.7695 386.474C75.2194 376.268 106.316 381.776 106.316 381.776C106.316 381.776 96.9554 374.134 105.608 366.219C114.261 358.305 150.446 386.53 150.446 386.53C150.446 386.53 141.915 370.216 160.738 374.177C179.561 378.138 223.25 423.516 223.25 423.516L70.7695 386.474Z" fill="#466EB6"/>
<path d="M282.755 31.3862C270.173 33.4538 266.437 49.9716 276.897 57.3597C278.768 58.7037 280.093 60.6764 280.629 62.9172L282.532 70.5983C282.785 71.6194 283.413 72.5077 284.291 73.0866C285.169 73.6655 286.233 73.8926 287.271 73.7227L292.037 72.9358C293.075 72.7663 294.01 72.2114 294.657 71.382C295.304 70.5526 295.614 69.5097 295.526 68.4615C294.867 60.5269 294.048 57.6527 296.625 54.1134C304.166 43.7655 295.332 29.312 282.755 31.3862Z" fill="#F7CC7F"/>
<path d="M284.038 64.965C283.219 58.1695 282.063 50.9922 281.678 48.9575C274.467 49.3559 277.209 41.7538 280.536 44.8453C281.484 45.7244 281.932 46.9195 282.228 48.2299C284.625 48.0135 286.958 47.3337 289.097 46.2281C288.982 44.5523 288.817 43.265 289.284 42.2082C289.992 40.5883 292.043 40.1471 292.879 41.7275C293.034 42.0302 293.127 42.3612 293.151 42.7007C293.175 43.0402 293.131 43.3811 293.02 43.7029C292.536 45.0429 291.082 45.9285 289.814 46.6199C290.193 52.0227 290.716 57.4683 291.378 62.8282L290.7 62.9138C290.041 57.646 289.528 52.2828 289.15 46.9689C287.026 48.0245 284.727 48.6797 282.366 48.9015C282.86 51.5058 283.949 58.4988 284.719 64.8794L284.038 64.965ZM278.252 47.3574C278.91 48.0455 279.967 48.3451 281.543 48.2793C281.273 47.1236 280.885 46.0866 280.079 45.3491C278.278 43.6831 277.179 46.1985 278.252 47.3574ZM289.913 42.4847C289.521 43.3835 289.67 44.5392 289.762 45.866C290.792 45.2799 291.987 44.549 292.375 43.4724C292.648 42.7185 292.342 41.655 291.575 41.4575C291.49 41.4377 290.19 41.8526 289.913 42.4847Z" fill="#FAE0B2"/>
<path d="M280.572 62.7257C280.572 62.7883 280.612 62.8508 280.628 62.9167L282.531 70.5978C282.784 71.6189 283.412 72.5072 284.29 73.0861C285.168 73.665 286.232 73.8921 287.27 73.7222L292.036 72.9354C293.074 72.7658 294.009 72.211 294.656 71.3815C295.303 70.5521 295.613 69.5092 295.525 68.461C295.232 64.9316 294.906 62.4031 294.867 60.375L280.572 62.7257Z" fill="#96D9C9"/>
<path d="M273.428 25.6472L269.66 18.7793C269.503 18.4618 269.475 18.0958 269.581 17.7579C269.688 17.42 269.921 17.1364 270.231 16.9664C270.542 16.7963 270.906 16.753 271.248 16.8454C271.59 16.9379 271.883 17.1589 272.066 17.4624L275.828 24.3302C276.002 24.6498 276.043 25.0257 275.94 25.3752C275.838 25.7246 275.601 26.0191 275.281 26.1937C274.962 26.3684 274.586 26.4089 274.237 26.3064C273.887 26.2039 273.593 25.9668 273.418 25.6472H273.428Z" fill="#FAE0B2"/>
<path d="M265.205 42.2801L257.006 41.5624C256.643 41.5309 256.308 41.3567 256.074 41.0779C255.84 40.7991 255.726 40.4387 255.757 40.0759C255.789 39.7131 255.963 39.3776 256.241 39.1433C256.52 38.909 256.88 38.795 257.243 38.8264L265.445 39.5442C265.808 39.576 266.143 39.7507 266.377 40.0298C266.611 40.3089 266.724 40.6695 266.693 41.0323C266.661 41.3951 266.486 41.7304 266.207 41.9644C265.928 42.1984 265.568 42.312 265.205 42.2801Z" fill="#FAE0B2"/>
<path d="M257.076 67.4113C256.949 67.2841 256.847 67.133 256.778 66.9666C256.709 66.8002 256.674 66.6219 256.674 66.4417C256.674 66.2616 256.709 66.0832 256.778 65.9169C256.847 65.7505 256.949 65.5994 257.076 65.4721C259.095 63.4758 261.299 61.6756 263.659 60.0957C263.961 59.9093 264.324 59.8474 264.671 59.9231C265.018 59.9989 265.323 60.2063 265.52 60.5018C265.717 60.7973 265.792 61.1579 265.729 61.5077C265.667 61.8574 265.471 62.1692 265.183 62.3773C262.966 63.8601 260.895 65.5501 258.998 67.4245C258.74 67.6753 258.394 67.8145 258.034 67.812C257.675 67.8096 257.33 67.6656 257.076 67.4113Z" fill="#FAE0B2"/>
<path d="M293.685 25.2759C293.509 25.2311 293.345 25.1519 293.2 25.0431C293.055 24.9343 292.934 24.798 292.842 24.6419C292.75 24.4858 292.69 24.3131 292.665 24.1338C292.64 23.9544 292.651 23.7719 292.697 23.5968C293.627 20.1121 294.194 16.5407 294.389 12.9394C294.408 12.5757 294.571 12.2346 294.842 11.991C295.113 11.7474 295.469 11.6214 295.832 11.6406C296.196 11.6598 296.537 11.8227 296.781 12.0934C297.024 12.3642 297.15 12.7206 297.131 13.0843C296.926 16.8758 296.329 20.636 295.35 24.3047C295.256 24.653 295.028 24.9502 294.717 25.132C294.405 25.3138 294.034 25.3655 293.685 25.2759Z" fill="#FAE0B2"/>
<path d="M302.135 35.821C302.083 35.6482 302.065 35.4669 302.083 35.2874C302.101 35.1078 302.154 34.9335 302.239 34.7745C302.325 34.6155 302.44 34.4749 302.58 34.3607C302.72 34.2465 302.88 34.1609 303.053 34.1089L311.578 31.5409C311.751 31.4888 311.932 31.4713 312.112 31.4893C312.291 31.5074 312.466 31.5606 312.625 31.6461C312.784 31.7315 312.925 31.8475 313.039 31.9873C313.153 32.1272 313.239 32.2882 313.291 32.4611C313.343 32.634 313.361 32.8156 313.342 32.9953C313.324 33.175 313.271 33.3494 313.186 33.5085C313.1 33.6677 312.984 33.8084 312.845 33.9227C312.705 34.037 312.544 34.1227 312.371 34.1748L303.846 36.7461C303.497 36.8504 303.12 36.8115 302.799 36.638C302.478 36.4646 302.239 36.1706 302.135 35.821Z" fill="#FAE0B2"/>
<path d="M316.14 58.5121C316.014 58.5117 315.889 58.4951 315.768 58.4628C312.809 57.6271 309.947 56.4793 307.23 55.0387C307.068 54.9557 306.924 54.8413 306.806 54.7021C306.689 54.5629 306.6 54.4016 306.546 54.2278C306.491 54.0539 306.471 53.8709 306.488 53.6895C306.505 53.508 306.558 53.3317 306.644 53.1709C306.729 53.01 306.846 52.8679 306.987 52.7526C307.128 52.6374 307.291 52.5514 307.466 52.4998C307.64 52.4481 307.824 52.4317 308.005 52.4515C308.186 52.4714 308.361 52.5272 308.52 52.6155C311.063 53.9649 313.742 55.0388 316.512 55.819C316.83 55.9097 317.104 56.1123 317.285 56.3893C317.465 56.6664 317.54 56.9994 317.495 57.3271C317.45 57.6548 317.288 57.9551 317.039 58.1728C316.79 58.3905 316.47 58.511 316.14 58.5121Z" fill="#FAE0B2"/>
<path d="M441.009 119.191L436.707 109.014L425.891 106.791C425.614 106.734 425.358 106.601 425.153 106.406C424.947 106.211 424.801 105.963 424.729 105.688C424.657 105.414 424.664 105.126 424.748 104.855C424.832 104.585 424.99 104.343 425.204 104.158L433.547 96.9144L432.316 85.9377C432.284 85.6547 432.332 85.3685 432.455 85.1116C432.578 84.8547 432.77 84.6373 433.01 84.4843C433.25 84.3314 433.528 84.2488 433.813 84.2462C434.097 84.2435 434.377 84.3208 434.62 84.4693L444.076 90.1717L454.134 85.6084C454.392 85.4916 454.678 85.4493 454.959 85.4864C455.24 85.5235 455.504 85.6385 455.723 85.8184C455.942 85.9983 456.106 86.2358 456.197 86.5042C456.288 86.7726 456.302 87.061 456.237 87.3369L453.739 98.0964L461.184 106.255C461.375 106.464 461.504 106.722 461.555 107C461.607 107.278 461.58 107.565 461.477 107.829C461.375 108.093 461.2 108.322 460.974 108.492C460.748 108.662 460.479 108.765 460.197 108.79L449.194 109.738L443.74 119.342C443.602 119.592 443.396 119.797 443.146 119.935C442.896 120.073 442.612 120.138 442.327 120.122C442.042 120.106 441.767 120.01 441.534 119.846C441.301 119.681 441.119 119.454 441.009 119.191Z" fill="#F7CC7F"/>
<path d="M509.478 84.2812L507.711 91.4026L495.941 89.8223L492.07 99.9167L483.068 100.177L483.2 104.733L495.24 104.388L498.906 94.8201L511.15 96.4663L513.813 85.7464L509.478 84.2812Z" fill="#F48C7F"/>
<path d="M404.604 425.706H197.698C189.799 425.706 183.391 419.059 183.391 410.861V402.031C183.391 393.833 189.796 387.186 197.698 387.186H404.604C395.142 397.919 394.977 414.321 404.226 425.258L404.604 425.706Z" fill="#FDAAAA"/>
<path d="M401.415 391.601H286.649C278.75 391.601 272.342 398.248 272.342 406.446C272.342 414.647 278.747 421.291 286.649 421.291H401.425C398.794 416.787 397.406 411.664 397.405 406.447C397.403 401.23 398.787 396.107 401.415 391.601Z" fill="#FAE0B2"/>
<path d="M331.919 360.431C331.982 360.295 332.009 360.144 331.995 359.994C331.982 359.844 331.93 359.7 331.843 359.576C331.757 359.453 331.64 359.355 331.503 359.291C331.367 359.227 331.216 359.2 331.066 359.213H221.583C213 359.213 206.045 365.469 206.045 373.202C206.045 380.926 213 387.192 221.583 387.192H331.096C331.246 387.204 331.398 387.177 331.534 387.112C331.671 387.048 331.788 386.949 331.875 386.825C331.961 386.701 332.013 386.556 332.026 386.406C332.039 386.255 332.012 386.104 331.948 385.967C329.821 382.049 328.704 377.662 328.699 373.203C328.693 368.744 329.8 364.354 331.919 360.431Z" fill="#86B1F2"/>
<path d="M331.227 361.817H276.966C266.895 361.817 258.732 367.065 258.732 373.538C258.732 380.011 266.895 385.262 276.966 385.262H331.583C329.748 381.638 328.763 377.643 328.701 373.581C328.64 369.519 329.504 365.496 331.227 361.817Z" fill="#F7CC7F"/>
<path d="M317.212 367.375H310.142C308.625 367.375 307.391 367.885 307.391 368.514V368.616H317.209L317.212 367.375Z" fill="#B75742"/>
<path d="M323.242 370.233C323.242 368.652 321.396 367.375 319.118 367.375H310.051C311.779 367.375 313.178 368.346 313.178 369.541L313.135 400.19L318.144 396.239L323.252 400.19L323.242 370.233Z" fill="#F47458"/>
<path d="M311.787 358.206H248.084C242.436 358.206 237.857 352.767 237.857 346.06C237.857 339.354 242.436 333.918 248.084 333.918H311.787C306.919 340.651 306.729 350.525 311.333 357.514L311.787 358.206Z" fill="#FAE0B2"/>
<path d="M237.865 346.06C237.865 339.354 242.552 333.918 248.335 333.918H313.003C313.159 333.905 313.304 333.831 313.405 333.712C313.507 333.593 313.558 333.439 313.546 333.282C313.555 333.128 313.503 332.977 313.402 332.86C313.3 332.744 313.157 332.672 313.003 332.66H210.415C204.033 332.66 198.859 338.659 198.859 346.06C198.859 353.465 204.033 359.463 210.415 359.463H313.003C313.156 359.451 313.299 359.379 313.401 359.262C313.502 359.146 313.554 358.995 313.546 358.841C313.552 358.764 313.543 358.686 313.519 358.612C313.495 358.538 313.457 358.469 313.406 358.41C313.356 358.351 313.294 358.303 313.225 358.268C313.156 358.233 313.08 358.211 313.003 358.206H248.335C242.552 358.206 237.865 352.767 237.865 346.06Z" fill="#466EB6"/>
<path d="M300.667 339.884H293.601C292.08 339.884 290.846 340.387 290.846 341.003V341.105H300.667V339.884Z" fill="#184655"/>
<path d="M306.694 342.689C306.694 341.141 304.847 339.884 302.573 339.884H293.502C295.23 339.884 296.629 340.839 296.629 342.011L296.586 372.067L301.599 368.201L306.704 372.067L306.694 342.689Z" fill="#3C8F7C"/>
<path d="M413.286 154.238L422.693 151.762L416.318 236.803L405.035 237.179L410.726 157.326C410.777 156.608 411.052 155.924 411.511 155.371C411.97 154.817 412.591 154.421 413.286 154.238Z" fill="#184655"/>
<path d="M417.161 239.227C416.942 239.251 416.721 239.251 416.502 239.227C414.636 239.006 413.254 237.149 413.415 235.078L419.669 155.113C419.83 153.042 421.476 151.541 423.345 151.762C425.215 151.982 426.594 153.843 426.432 155.913L420.179 235.878C420.047 237.696 418.757 239.082 417.161 239.227Z" fill="#F7CC7F"/>
<path d="M330.607 243.486C330.607 243.546 330.607 243.602 330.607 243.661C330.9 246.914 333.422 249.35 336.236 249.097L415.655 241.985C418.47 241.735 420.51 238.894 420.217 235.641C420.217 235.502 420.188 235.367 420.165 235.232L330.607 243.486Z" fill="#F7CC7F"/>
<path d="M385.913 329.374C380.712 332.258 364.815 327.201 364.815 326.74C364.588 331.086 347.016 373.624 347.016 373.624V386.711C347.016 386.711 383.22 388.436 382.704 385.236C382.187 382.035 380.235 384.116 373.014 378.071C372.356 377.535 362.231 375.181 364.973 369.182C370.516 357.089 382.253 336.927 385.913 329.374Z" fill="#F7A491"/>
<path d="M345.839 387.186H385.474C386.902 387.041 387.238 385.869 386.731 385.167C385.691 383.712 378.094 380.275 372.99 377.997C364.103 379.034 348.462 375.613 347.031 373.585C343.265 378.639 345.03 387.021 345.839 387.186Z" fill="#F24444"/>
<path d="M337.132 298.838C336.595 297.228 371.256 282.514 372.806 284.197C375.551 287.16 354.046 342.988 354.046 342.988L378.731 350.538C378.731 350.538 404.403 286.05 403.333 274.254C402.264 262.457 389.401 249.057 361.534 257.634C333.666 266.21 337.132 298.838 337.132 298.838Z" fill="#17485B"/>
<path d="M408.909 336.713C403.057 335.649 395.473 335.347 389.404 335.241C390.118 340.647 393.591 368.372 392.959 370.078C391.359 374.258 388.455 377.81 384.678 380.208C384.678 380.208 411.591 404.499 413.217 401.694C414.843 398.889 412.016 399.265 410.255 390.01C410.1 389.187 406.206 376.267 405.976 369.301C405.509 356.013 408.708 344.094 408.909 336.713Z" fill="#F7A491"/>
<path d="M400.273 246.009C396.518 244.007 386.779 243.935 376.056 244.629C355.159 246.017 334.526 250.068 314.656 256.686L301.355 261.091L301.398 247.451C301.398 247.451 259.085 240.369 257.624 250.858C255.408 266.662 258.16 298.729 272.257 305.887C316.048 328.124 377.415 270.464 377.639 278.007C377.935 288.138 386.476 325.839 388.658 342.343C394.727 342.449 405.157 342.445 409.683 341.405C410.549 309.071 410.963 251.714 400.273 246.009Z" fill="#05668D"/>
<path d="M383.868 380.779L414.125 404.951C415.323 405.748 416.317 405.06 416.376 404.191C416.495 402.403 412.795 394.929 410.291 389.931C402.754 385.095 392.81 372.482 392.991 370.013C389.792 372.706 383.345 380.143 383.868 380.779Z" fill="#F24444"/>
<path d="M315.375 114.153C314.361 104.859 313.291 95.5314 305.589 88.7195C299.356 83.2081 291.437 82.2731 283.597 85.223C261.397 93.5791 272.834 113.3 244.529 133.186C235.731 139.366 226.038 143.593 219.416 151.913C210.147 163.562 213.646 177.567 222.092 186.921C262.516 231.671 307.643 171.236 310.885 156.727C313.294 145.934 316.03 120.135 315.375 114.153Z" fill="#13375B"/>
<path d="M307.18 166.403C305.136 162.649 302.9 159.004 300.479 155.482C297.052 149.391 288.205 146.312 288.205 146.312C288.205 146.312 285.243 146.372 281.847 146.54C281.724 146.964 281.497 147.351 281.188 147.666C279.911 148.624 272.591 147.389 267.865 150.599C252.017 164.187 256.401 230.05 257.662 250.852L305.923 251.309C305.923 251.309 299.837 206.533 309.642 195.049C316.461 187.049 312.068 175.443 307.18 166.403Z" fill="#F24444"/>
<path d="M285.415 124.036C285.415 124.036 282.762 142.987 280.909 147.593C279.056 152.199 291.112 162.05 301.114 165.043C311.117 168.035 298.053 154.869 298.481 149.944C298.909 145.019 300.719 121.712 300.719 121.712L285.415 124.036Z" fill="#F7A491"/>
<path d="M300.199 128.392C300.492 124.537 300.706 121.709 300.706 121.709L285.415 124.037C285.415 124.037 285.029 126.262 284.602 129.41C290.802 133.008 296.375 131.873 300.199 128.392Z" fill="#F47458"/>
<path d="M290.21 89.4205C286.226 90.5305 282.769 93.0266 280.461 96.4596C276.742 102.139 274.188 118.864 286.445 126.67C298.702 134.476 308.23 123.434 308.388 112.665C308.546 101.895 306.239 87.5208 290.21 89.4205Z" fill="#F7A491"/>
<path d="M311.195 109.294C310.148 111.891 308.075 113.505 306.561 112.896C305.047 112.286 304.668 109.686 305.715 107.088C306.761 104.49 308.835 102.877 310.346 103.486C311.856 104.095 312.238 106.696 311.195 109.294Z" fill="#F7A491"/>
<path d="M292.018 89.0687C292.018 89.0687 284.336 106.308 277.585 107.835C270.835 109.363 270.934 118.042 270.934 118.042C270.934 118.042 271.085 98.0075 277.411 93.4147C283.737 88.8218 292.018 89.0687 292.018 89.0687Z" fill="#13375B"/>
<path d="M280.267 111.421C281.156 114.219 280.343 116.975 278.45 117.577C276.558 118.18 274.303 116.395 273.415 113.597C272.526 110.798 273.339 108.039 275.232 107.437C277.124 106.834 279.379 108.629 280.267 111.421Z" fill="#F7A491"/>
<path d="M366.589 235.888C363.696 234.841 359.384 234.71 359.457 234.328C359.746 232.78 372.54 237.745 370.812 235.487C369.851 234.229 360.279 229.774 357.949 230.509C355.688 231.223 340.864 235.385 340.864 235.385L300.344 225.886C300.344 225.886 290.118 202.639 289.117 182.664C280.665 183.81 274.909 185.897 267.562 189.976C271.104 209.072 279.717 240.04 289.239 245.851C293.241 248.294 341.065 242.924 341.065 242.924C341.065 242.924 351.597 242.18 353.325 241.518C354.641 241.015 357.995 239.122 359.822 238.601C363.982 237.426 371.388 240.382 371.411 239.566C371.427 238.973 369.548 236.958 366.589 235.888Z" fill="#F7A491"/>
<path d="M289.367 161.322C288.979 155.179 286.649 149.243 280.112 147.333C276.061 146.148 271.515 147.281 268.263 149.928C264.413 153.075 263.326 158.122 263.356 162.9C263.396 173.764 264.136 184.998 266.117 195.682C273.464 191.602 282.041 189.15 290.496 188.007C290.506 187.941 289.884 169.445 289.367 161.322Z" fill="#EE7674"/>
<path d="M163.826 172.922L101.008 161.221C100.402 161.107 99.8659 160.758 99.5172 160.249C99.1686 159.741 99.0359 159.114 99.1485 158.508L107.018 116.237C107.132 115.631 107.481 115.095 107.989 114.746C108.498 114.397 109.124 114.264 109.73 114.377L172.545 126.078C172.846 126.131 173.134 126.244 173.391 126.41C173.648 126.576 173.87 126.791 174.043 127.043C174.216 127.295 174.337 127.579 174.399 127.879C174.461 128.178 174.463 128.487 174.405 128.788L166.535 171.062C166.423 171.668 166.074 172.204 165.566 172.553C165.058 172.902 164.432 173.034 163.826 172.922Z" fill="#F7CC7F"/>
<path d="M133.925 124.59L114.802 121.028C114.502 120.971 114.216 120.857 113.961 120.69C113.705 120.523 113.485 120.308 113.312 120.056C113.14 119.804 113.019 119.52 112.956 119.222C112.893 118.923 112.89 118.615 112.946 118.315L114.141 111.885C114.254 111.278 114.604 110.742 115.112 110.393C115.621 110.045 116.247 109.912 116.853 110.024L135.972 113.587C136.273 113.64 136.561 113.753 136.818 113.919C137.075 114.084 137.297 114.3 137.47 114.552C137.643 114.804 137.764 115.088 137.826 115.388C137.888 115.687 137.89 115.996 137.832 116.296L136.634 122.73C136.521 123.336 136.172 123.872 135.664 124.221C135.156 124.57 134.531 124.702 133.925 124.59Z" fill="#F7CC7F"/>
<path d="M166.687 171.305C166.528 171.861 166.167 172.338 165.675 172.643C165.183 172.947 164.596 173.057 164.027 172.951L100.814 161.181C100.246 161.075 99.7388 160.761 99.3897 160.301C99.0405 159.841 98.8748 159.268 98.9247 158.692L102.216 120.8C102.244 120.477 102.339 120.163 102.496 119.879C102.653 119.595 102.867 119.347 103.125 119.15C103.383 118.954 103.68 118.814 103.995 118.739C104.311 118.665 104.639 118.657 104.958 118.716L175.198 131.8C175.515 131.86 175.817 131.985 176.083 132.167C176.349 132.35 176.575 132.586 176.745 132.86C176.915 133.134 177.027 133.441 177.072 133.761C177.117 134.081 177.096 134.406 177.008 134.717L166.687 171.305Z" fill="#FAE0B2"/>
<path d="M454.809 32.8476L444.053 35.7844L441.736 22.7466L445.258 22.1211L446.887 31.3035L453.868 29.3972L454.809 32.8476Z" fill="#50BFA5"/>
<path d="M112.105 211.93C114.801 211.709 118.938 212.898 120.791 214.156C121.068 214.416 123.201 215.265 125.419 218.939L124.919 219.269C122.582 216.819 121.009 216.269 119.132 215.706C116.045 214.913 112.932 215.505 112.678 215.644L112.105 211.93Z" fill="#355389"/>
<path d="M125.17 219.11C125.17 219.11 108.756 221.849 110.286 234.676C111.817 247.504 129.132 257.479 144.589 249.548C165.377 238.878 157.165 211.745 142.367 209.648C127.569 207.551 125.17 219.11 125.17 219.11Z" fill="#F47458"/>
<path d="M132.134 213.463C132.134 213.463 136.413 209.065 145.796 213.065C155.18 217.065 155.858 235.723 147.491 234.64C139.125 233.557 125.443 216.153 132.134 213.463Z" fill="#F48C7F"/>
<path d="M245.042 43.067L177.537 67.1539C176.492 67.5266 175.342 67.469 174.339 66.9936C173.337 66.5181 172.565 65.6639 172.192 64.6188L159.727 29.6802C159.355 28.635 159.412 27.4845 159.888 26.4819C160.363 25.4792 161.217 24.7064 162.262 24.3334L229.767 0.243201C230.812 -0.128631 231.962 -0.0705241 232.964 0.404775C233.966 0.880074 234.739 1.73372 235.112 2.77832L247.57 37.7202C247.755 38.2373 247.836 38.7858 247.81 39.3344C247.783 39.883 247.648 40.4209 247.413 40.9174C247.179 41.4139 246.848 41.8593 246.441 42.2282C246.035 42.597 245.559 42.882 245.042 43.067Z" fill="#86B1F2"/>
<path d="M200.301 34.0857C201.19 36.5789 201.32 39.2799 200.675 41.847C200.029 44.4141 198.637 46.7321 196.675 48.5079C194.712 50.2836 192.268 51.4374 189.65 51.8232C187.032 52.209 184.358 51.8095 181.967 50.6753C179.576 49.5411 177.575 47.7232 176.217 45.4513C174.859 43.1794 174.205 40.5557 174.337 37.912C174.47 35.2682 175.383 32.7232 176.962 30.5987C178.54 28.4742 180.713 26.8657 183.206 25.9767C184.861 25.3859 186.615 25.1271 188.37 25.215C190.125 25.3028 191.845 25.7356 193.433 26.4887C195.02 27.2417 196.444 28.3002 197.622 29.6037C198.801 30.9073 199.711 32.4303 200.301 34.0857Z" fill="white"/>
<path d="M189.617 32.2125C189.881 32.9486 189.92 33.7464 189.73 34.5049C189.54 35.2635 189.13 35.9486 188.551 36.4736C187.971 36.9985 187.249 37.3398 186.476 37.454C185.703 37.5683 184.913 37.4504 184.207 37.1154C183.5 36.7803 182.909 36.2432 182.508 35.572C182.107 34.9007 181.915 34.1256 181.954 33.3447C181.994 32.5638 182.265 31.8122 182.732 31.1852C183.199 30.5581 183.841 30.0838 184.578 29.8223C185.563 29.4725 186.647 29.5277 187.591 29.9758C188.536 30.4238 189.264 31.2282 189.617 32.2125Z" fill="#86B1F2"/>
<path d="M186.53 40.1623L189.599 39.0673C190.766 38.6508 192.051 38.7152 193.171 39.2465C194.291 39.7777 195.154 40.7323 195.571 41.9002L196.046 43.2336L184.161 47.4742L183.685 46.1408C183.479 45.5615 183.389 44.9471 183.42 44.3328C183.451 43.7185 183.603 43.1165 183.867 42.5611C184.131 42.0057 184.503 41.508 184.96 41.0963C185.416 40.6847 185.95 40.3673 186.53 40.1623Z" fill="#86B1F2"/>
<path d="M201.966 26.7831C201.565 26.7818 201.177 26.6391 200.87 26.3802C200.563 26.1212 200.358 25.7625 200.289 25.3669C200.22 24.9713 200.293 24.5642 200.494 24.2169C200.696 23.8696 201.013 23.6043 201.39 23.4676L230.9 12.9321C231.111 12.8568 231.335 12.8239 231.559 12.8352C231.782 12.8464 232.002 12.9016 232.204 12.9976C232.406 13.0936 232.588 13.2285 232.738 13.3946C232.888 13.5608 233.004 13.7549 233.079 13.9659C233.155 14.1769 233.187 14.4006 233.176 14.6243C233.165 14.8481 233.11 15.0674 233.014 15.2698C232.918 15.4722 232.783 15.6537 232.617 15.8039C232.451 15.9541 232.257 16.0702 232.046 16.1454L202.539 26.681C202.355 26.7473 202.162 26.7818 201.966 26.7831Z" fill="white"/>
<path d="M209.932 34.1415C209.528 34.1439 209.137 34.0031 208.828 33.744C208.518 33.4848 208.31 33.1243 208.242 32.7264C208.173 32.3286 208.248 31.9193 208.452 31.5713C208.657 31.2233 208.978 30.9593 209.359 30.8261L232.399 22.5952C232.825 22.4432 233.294 22.4668 233.702 22.6607C234.111 22.8546 234.426 23.2029 234.578 23.629C234.729 24.0551 234.706 24.5241 234.512 24.9328C234.318 25.3416 233.97 25.6566 233.544 25.8085L210.505 34.0394C210.321 34.1059 210.127 34.1405 209.932 34.1415Z" fill="white"/>
<path d="M349.931 306.614H186.931C184.5 306.615 182.169 307.582 180.451 309.301C178.733 311.021 177.768 313.352 177.768 315.783V323.494C177.768 325.925 178.733 328.257 180.451 329.977C182.169 331.696 184.5 332.663 186.931 332.663H349.931L349.845 332.575C346.491 329.081 344.625 324.421 344.641 319.577C344.657 314.733 346.553 310.085 349.931 306.614Z" fill="#F47458"/>
<path d="M347.049 310.47H259.91C257.479 310.47 255.148 311.436 253.429 313.155C251.71 314.875 250.744 317.207 250.744 319.639C250.744 322.071 251.71 324.403 253.429 326.123C255.148 327.842 257.479 328.808 259.91 328.808H347.045C345.471 326.009 344.644 322.851 344.645 319.639C344.646 316.426 345.473 313.269 347.049 310.47Z" fill="#FAE0B2"/>
<path d="M483.338 307.365L470.982 276.367C470.834 275.996 470.761 275.6 470.766 275.201C470.771 274.801 470.855 274.407 471.013 274.04C471.17 273.673 471.399 273.341 471.685 273.062C471.971 272.784 472.31 272.564 472.681 272.417L517.14 254.69C517.511 254.542 517.907 254.469 518.306 254.474C518.706 254.479 519.1 254.563 519.467 254.721C519.834 254.879 520.166 255.107 520.444 255.393C520.723 255.68 520.942 256.018 521.09 256.389L533.445 287.397C533.593 287.768 533.667 288.164 533.662 288.564C533.656 288.963 533.573 289.357 533.415 289.724C533.257 290.091 533.029 290.424 532.742 290.702C532.456 290.981 532.118 291.2 531.747 291.348L487.288 309.074C486.916 309.222 486.519 309.295 486.119 309.289C485.72 309.283 485.325 309.198 484.958 309.039C484.591 308.881 484.259 308.651 483.981 308.364C483.703 308.076 483.485 307.737 483.338 307.365Z" fill="#FAE0B2"/>
<path d="M525.28 289.435L514.178 261.571C514.136 261.465 514.114 261.352 514.115 261.237C514.116 261.123 514.14 261.01 514.185 260.905C514.23 260.799 514.295 260.704 514.377 260.624C514.459 260.544 514.556 260.481 514.662 260.439C514.877 260.353 515.118 260.357 515.331 260.448C515.543 260.539 515.711 260.711 515.798 260.926L526.899 288.789C526.985 289.004 526.981 289.244 526.89 289.456C526.799 289.669 526.627 289.836 526.412 289.922C526.198 290.007 525.958 290.004 525.745 289.913C525.533 289.821 525.366 289.649 525.28 289.435Z" fill="#466EB6"/>
<path d="M519.991 285.764L510.874 262.889C510.789 262.674 510.792 262.434 510.884 262.222C510.975 262.009 511.147 261.842 511.361 261.756C511.468 261.713 511.581 261.692 511.696 261.693C511.81 261.695 511.924 261.719 512.029 261.764C512.134 261.809 512.229 261.875 512.309 261.957C512.389 262.04 512.452 262.137 512.494 262.243L521.611 285.119C521.693 285.334 521.687 285.572 521.594 285.783C521.502 285.994 521.331 286.159 521.117 286.245C520.904 286.329 520.666 286.326 520.455 286.236C520.244 286.146 520.078 285.976 519.991 285.764Z" fill="#466EB6"/>
<path d="M518.675 292.069L507.57 264.206C507.527 264.099 507.506 263.986 507.508 263.871C507.51 263.756 507.534 263.643 507.579 263.538C507.625 263.432 507.691 263.337 507.774 263.257C507.856 263.178 507.954 263.115 508.06 263.073C508.167 263.031 508.28 263.009 508.395 263.011C508.51 263.012 508.623 263.036 508.728 263.081C508.833 263.127 508.928 263.192 509.008 263.275C509.088 263.357 509.151 263.454 509.193 263.561L520.294 291.424C520.38 291.639 520.376 291.879 520.285 292.091C520.194 292.303 520.022 292.471 519.807 292.557C519.592 292.642 519.353 292.639 519.14 292.547C518.928 292.456 518.761 292.284 518.675 292.069Z" fill="#466EB6"/>
<path d="M512.84 287.028L504.282 265.522C504.197 265.308 504.2 265.068 504.292 264.855C504.383 264.643 504.555 264.476 504.77 264.39C504.876 264.347 504.989 264.326 505.104 264.327C505.219 264.329 505.332 264.353 505.437 264.398C505.542 264.443 505.637 264.509 505.717 264.591C505.797 264.673 505.86 264.771 505.902 264.877L514.459 286.383C514.545 286.598 514.541 286.838 514.45 287.05C514.359 287.262 514.187 287.43 513.972 287.515C513.757 287.601 513.517 287.597 513.305 287.506C513.093 287.415 512.926 287.243 512.84 287.028Z" fill="#466EB6"/>
<path d="M524.98 258.589L524.756 258.029C524.739 257.981 524.712 257.936 524.678 257.898C524.643 257.86 524.601 257.83 524.555 257.808C524.508 257.786 524.458 257.774 524.407 257.772C524.355 257.77 524.304 257.778 524.256 257.796L520.036 259.478C519.941 259.519 519.867 259.596 519.828 259.693C519.79 259.789 519.792 259.896 519.832 259.992L520.056 260.555C520.093 260.651 520.165 260.73 520.259 260.773C520.352 260.817 520.459 260.822 520.556 260.788L524.776 259.106C524.871 259.064 524.946 258.986 524.984 258.889C525.022 258.793 525.021 258.685 524.98 258.589Z" fill="#355389"/>
<path d="M525.94 260.999L525.716 260.439C525.698 260.391 525.672 260.347 525.637 260.309C525.603 260.271 525.561 260.24 525.514 260.218C525.468 260.196 525.417 260.184 525.366 260.182C525.315 260.18 525.264 260.188 525.215 260.206L520.993 261.888C520.898 261.93 520.824 262.007 520.787 262.104C520.749 262.2 520.751 262.307 520.792 262.402L521.016 262.965C521.052 263.061 521.125 263.14 521.218 263.184C521.312 263.227 521.419 263.233 521.516 263.198L525.735 261.516C525.831 261.474 525.905 261.396 525.944 261.3C525.982 261.203 525.98 261.095 525.94 260.999Z" fill="#355389"/>
<path d="M526.893 263.399L526.67 262.839C526.652 262.791 526.626 262.746 526.591 262.708C526.557 262.67 526.515 262.639 526.468 262.618C526.422 262.596 526.371 262.584 526.32 262.581C526.269 262.579 526.218 262.587 526.169 262.605L521.95 264.288C521.903 264.308 521.86 264.337 521.824 264.374C521.788 264.41 521.76 264.454 521.741 264.502C521.723 264.55 521.714 264.601 521.715 264.652C521.716 264.704 521.728 264.754 521.749 264.801L521.97 265.364C522.006 265.462 522.079 265.541 522.173 265.584C522.268 265.628 522.375 265.633 522.473 265.598L526.693 263.912C526.74 263.892 526.782 263.862 526.818 263.825C526.853 263.789 526.881 263.745 526.9 263.697C526.919 263.649 526.928 263.598 526.927 263.547C526.925 263.496 526.914 263.445 526.893 263.399Z" fill="#355389"/>
<path d="M527.851 265.799L527.627 265.239C527.61 265.191 527.583 265.146 527.549 265.108C527.514 265.07 527.472 265.04 527.426 265.018C527.379 264.996 527.329 264.984 527.278 264.982C527.226 264.98 527.175 264.988 527.127 265.005L522.908 266.688C522.813 266.729 522.738 266.806 522.7 266.903C522.661 266.999 522.663 267.106 522.704 267.202L522.927 267.764C522.945 267.813 522.972 267.857 523.007 267.894C523.041 267.932 523.083 267.962 523.13 267.984C523.176 268.005 523.226 268.017 523.277 268.019C523.329 268.021 523.38 268.013 523.428 267.995L527.647 266.313C527.742 266.271 527.817 266.194 527.855 266.098C527.893 266.002 527.892 265.894 527.851 265.799Z" fill="#355389"/>
<path d="M528.806 268.199L528.582 267.64C528.565 267.591 528.538 267.547 528.504 267.509C528.469 267.471 528.428 267.44 528.381 267.418C528.335 267.397 528.284 267.384 528.233 267.382C528.182 267.38 528.13 267.388 528.082 267.406L523.863 269.088C523.768 269.13 523.693 269.207 523.655 269.303C523.616 269.399 523.618 269.507 523.659 269.602L523.882 270.162C523.9 270.21 523.927 270.255 523.962 270.293C523.997 270.331 524.039 270.361 524.086 270.383C524.132 270.405 524.183 270.417 524.235 270.419C524.286 270.421 524.338 270.413 524.386 270.395L528.605 268.713C528.652 268.693 528.695 268.663 528.731 268.626C528.766 268.589 528.794 268.546 528.813 268.498C528.831 268.45 528.84 268.399 528.839 268.348C528.838 268.297 528.827 268.246 528.806 268.199Z" fill="#355389"/>
<path d="M529.763 270.6L529.539 270.04C529.522 269.992 529.495 269.947 529.461 269.909C529.426 269.871 529.385 269.84 529.338 269.819C529.292 269.797 529.241 269.785 529.19 269.783C529.139 269.78 529.087 269.788 529.039 269.806L524.82 271.489C524.725 271.53 524.65 271.607 524.612 271.703C524.573 271.8 524.575 271.907 524.616 272.002L524.839 272.562C524.857 272.61 524.883 272.655 524.918 272.693C524.953 272.731 524.994 272.762 525.041 272.783C525.087 272.805 525.138 272.817 525.189 272.819C525.24 272.822 525.292 272.814 525.34 272.796L529.559 271.113C529.654 271.072 529.729 270.995 529.767 270.899C529.805 270.802 529.804 270.695 529.763 270.6Z" fill="#355389"/>
<path d="M530.719 272.999L530.495 272.439C530.477 272.391 530.451 272.347 530.416 272.309C530.382 272.271 530.34 272.24 530.293 272.218C530.247 272.196 530.197 272.184 530.145 272.182C530.094 272.18 530.043 272.188 529.994 272.206L525.775 273.888C525.728 273.908 525.685 273.938 525.65 273.975C525.614 274.012 525.586 274.055 525.568 274.103C525.549 274.151 525.54 274.202 525.541 274.253C525.542 274.304 525.553 274.355 525.574 274.402L525.798 274.961C525.815 275.01 525.842 275.054 525.877 275.092C525.911 275.13 525.953 275.161 525.999 275.183C526.046 275.204 526.096 275.217 526.148 275.219C526.199 275.221 526.25 275.213 526.298 275.195L530.518 273.513C530.565 273.492 530.607 273.463 530.643 273.426C530.678 273.389 530.706 273.346 530.725 273.298C530.744 273.25 530.753 273.199 530.752 273.148C530.751 273.097 530.739 273.046 530.719 272.999Z" fill="#355389"/>
<path d="M531.675 275.4L531.452 274.84C531.434 274.791 531.408 274.747 531.373 274.709C531.338 274.671 531.297 274.64 531.25 274.619C531.204 274.597 531.153 274.585 531.102 274.582C531.051 274.58 530.999 274.588 530.951 274.606L526.732 276.288C526.637 276.33 526.562 276.407 526.524 276.503C526.486 276.599 526.487 276.707 526.528 276.802L526.752 277.362C526.769 277.41 526.796 277.455 526.83 277.493C526.865 277.531 526.906 277.561 526.953 277.583C526.999 277.605 527.05 277.617 527.101 277.619C527.152 277.621 527.204 277.613 527.252 277.596L531.471 275.913C531.566 275.872 531.641 275.795 531.679 275.698C531.718 275.602 531.716 275.495 531.675 275.4Z" fill="#355389"/>
<path d="M532.636 277.8L532.413 277.24C532.395 277.192 532.369 277.147 532.334 277.109C532.3 277.071 532.258 277.041 532.211 277.019C532.165 276.997 532.114 276.985 532.063 276.983C532.012 276.981 531.961 276.989 531.912 277.006L527.693 278.689C527.646 278.709 527.603 278.739 527.568 278.776C527.532 278.813 527.504 278.856 527.486 278.904C527.467 278.952 527.458 279.003 527.459 279.054C527.46 279.105 527.471 279.156 527.492 279.202L527.716 279.762C527.733 279.811 527.76 279.855 527.794 279.893C527.829 279.931 527.871 279.962 527.917 279.984C527.964 280.005 528.014 280.018 528.066 280.02C528.117 280.022 528.168 280.014 528.216 279.996L532.436 278.314C532.483 278.293 532.525 278.264 532.561 278.227C532.596 278.19 532.624 278.146 532.643 278.099C532.662 278.051 532.671 278 532.67 277.949C532.668 277.897 532.657 277.847 532.636 277.8Z" fill="#355389"/>
<path d="M533.587 280.2L533.364 279.641C533.346 279.592 533.32 279.548 533.285 279.51C533.251 279.472 533.209 279.441 533.162 279.419C533.116 279.398 533.065 279.385 533.014 279.383C532.963 279.381 532.912 279.389 532.863 279.407L528.644 281.089C528.549 281.131 528.474 281.208 528.436 281.304C528.398 281.4 528.399 281.508 528.44 281.603L528.664 282.163C528.681 282.211 528.708 282.255 528.742 282.293C528.777 282.331 528.818 282.362 528.865 282.384C528.912 282.406 528.962 282.418 529.013 282.42C529.065 282.422 529.116 282.414 529.164 282.396L533.383 280.714C533.478 280.673 533.553 280.596 533.591 280.499C533.63 280.403 533.628 280.296 533.587 280.2Z" fill="#355389"/>
<path d="M534.542 282.6L534.321 282.037C534.285 281.94 534.212 281.861 534.117 281.818C534.023 281.775 533.915 281.771 533.818 281.807L529.598 283.486C529.504 283.528 529.43 283.606 529.392 283.703C529.354 283.8 529.356 283.908 529.398 284.003L529.621 284.563C529.639 284.611 529.665 284.655 529.7 284.693C529.734 284.731 529.776 284.762 529.823 284.784C529.869 284.806 529.92 284.818 529.971 284.82C530.022 284.822 530.074 284.814 530.122 284.796L534.341 283.114C534.388 283.093 534.431 283.064 534.466 283.027C534.502 282.99 534.53 282.947 534.548 282.899C534.567 282.851 534.576 282.8 534.575 282.749C534.574 282.698 534.563 282.647 534.542 282.6Z" fill="#355389"/>
<path d="M535.5 285.001L535.276 284.438C535.239 284.341 535.167 284.262 535.073 284.219C534.98 284.175 534.873 284.17 534.775 284.204L530.556 285.89C530.461 285.931 530.386 286.008 530.348 286.104C530.31 286.2 530.311 286.308 530.352 286.403L530.576 286.963C530.593 287.011 530.62 287.056 530.654 287.094C530.689 287.132 530.731 287.162 530.777 287.184C530.824 287.206 530.874 287.218 530.925 287.22C530.977 287.222 531.028 287.214 531.076 287.197L535.299 285.514C535.393 285.472 535.467 285.395 535.505 285.299C535.542 285.203 535.541 285.095 535.5 285.001Z" fill="#355389"/>
<path d="M547.158 282.531L529.513 307.665C529.473 307.721 529.441 307.783 529.421 307.849L527.62 313.371C527.576 313.511 527.577 313.661 527.624 313.8C527.67 313.94 527.76 314.061 527.879 314.146C527.999 314.231 528.142 314.276 528.289 314.275C528.436 314.273 528.579 314.225 528.696 314.138L533.419 310.575C533.476 310.531 533.526 310.479 533.568 310.421L551.259 285.221C551.314 285.144 551.353 285.057 551.373 284.965C551.393 284.873 551.394 284.777 551.376 284.685C551.358 284.592 551.321 284.504 551.267 284.426C551.214 284.349 551.145 284.283 551.064 284.233L548.102 282.333C547.95 282.237 547.766 282.204 547.59 282.241C547.414 282.278 547.259 282.382 547.158 282.531Z" fill="#EE7674"/>
<path d="M533.549 310.447L533.506 310.51L528.948 313.947L527.707 313.114L529.412 307.879C530.745 308.61 532.345 309.36 533.549 310.447Z" fill="#F7CC7F"/>
<path d="M368.399 10.4268C370.94 12.4549 375.36 18.9869 380.995 23.56C384.286 26.24 386.834 25.5585 391.043 26.0688C411.015 28.4821 405.604 32.5679 408 32.9827C407.319 34.5499 401.088 47.7819 399.933 50.4553C398.86 52.9213 397.007 54.0242 394.321 53.6555C390.191 53.0826 386.024 52.6678 381.956 51.7756C371.532 49.5137 365.733 44.2986 358.258 37.9674C356.283 36.285 355.79 34.191 356.817 31.814C361.592 20.745 367.872 11.4441 368.399 10.4268Z" fill="#466EB6"/>
<path d="M410.152 48.8853C410.063 53.2378 410.396 54.1103 408.526 53.4519C407.397 53.0394 406.297 52.5499 405.235 51.9867C404.488 51.6015 404.458 51.0912 405.067 50.4789C405.952 49.5866 406.864 48.7207 407.75 47.845C407.447 46.9972 407.45 46.0702 407.759 45.2247C408.068 44.3792 408.663 43.6685 409.441 43.2159C409.77 43.0249 409.53 43.4299 412.311 37.0262C403.112 35.8904 396.622 35.1298 385.401 33.7339C382.455 33.3847 379.676 32.1743 377.413 30.2538C369.4 23.5484 361.391 16.8375 353.387 10.1211C352.3 9.21236 352.162 7.87566 353.025 6.84845C353.683 6.06486 354.558 6.02535 355.5 6.14388C358.06 6.47311 383.17 9.5844 385.721 9.88401C388.998 10.242 392.093 11.5733 394.607 13.7064C402.48 20.3043 410.364 26.8891 418.259 33.4606C419.342 34.3627 419.635 35.1924 419.246 36.1966C418.828 37.2995 417.93 37.8263 416.541 37.5135C415.553 37.2995 415.106 37.5991 414.763 38.521C413.217 42.6825 412.13 43.6044 412.509 45.1255C412.808 46.3436 411.413 48.375 410.152 48.8853Z" fill="#86B1F2"/>
<path d="M451.811 344.648L456.386 349.014C467.21 359.34 476.037 371.575 482.423 385.105L483.124 386.589C483.124 386.589 495.108 387.65 496.78 376.811C486.378 365.118 477.535 352.126 470.472 338.159L468.307 333.092L451.811 344.648Z" fill="#466EB6"/>
<path d="M468.294 333.078C468.883 333.921 465.66 337.181 461.115 340.354C456.57 343.528 452.373 345.461 451.788 344.635C451.202 343.808 454.421 340.493 458.986 337.319C463.551 334.145 467.708 332.232 468.294 333.078Z" fill="#86B1F2"/>
<path d="M468.314 333.108C468.314 333.108 459.19 340.832 455.432 341.619L456.593 343.2C458.158 342.344 459.672 341.399 461.129 340.371C465.618 337.217 468.811 333.984 468.314 333.108Z" fill="#355389"/>
<path d="M480.501 355.532C480.517 356.849 480.007 362.611 470.449 365.008C471.077 365.864 471.694 366.728 472.302 367.602C478.355 365.811 481.074 362.706 482.298 360.339C482.489 359.967 482.723 359.463 482.881 359.075C482.071 357.903 481.278 356.722 480.501 355.532Z" fill="#B75742"/>
<path d="M471.309 363.309L457.242 362.806L460.576 365.637L458.585 369.252L471.899 365.858L471.309 363.309Z" fill="#B75742"/>
<path d="M472.593 366.582L467.594 375.29L471.109 373.95L472.462 376.716L474.812 367.557L472.593 366.582Z" fill="#B75742"/>
<path d="M474.499 368.942C473.587 369.031 472.67 368.846 471.865 368.412C471.059 367.977 470.401 367.312 469.974 366.502C469.548 365.692 469.372 364.773 469.47 363.862C469.567 362.952 469.934 362.091 470.523 361.39C471.112 360.689 471.896 360.179 472.776 359.925C473.655 359.672 474.591 359.686 475.462 359.967C476.334 360.247 477.102 360.781 477.669 361.5C478.236 362.219 478.576 363.09 478.646 364.003C478.698 364.6 478.632 365.201 478.452 365.773C478.272 366.344 477.981 366.874 477.596 367.333C477.211 367.792 476.739 368.17 476.207 368.446C475.676 368.722 475.095 368.891 474.499 368.942Z" fill="#F47458"/>
<path d="M504.358 171.341L474.736 144.9C472.811 143.182 473.61 139.633 476.267 138.144L499.908 124.751C501.422 123.895 503.127 123.974 504.223 124.955L533.845 151.396C535.771 153.115 534.971 156.664 532.315 158.152L508.673 171.542C507.159 172.405 505.454 172.329 504.358 171.341Z" fill="#9BC1F9"/>
<path d="M502.951 150.312L500.483 129.995C500.455 129.589 500.565 129.185 500.794 128.849C501.023 128.512 501.359 128.262 501.746 128.138C501.915 128.071 502.097 128.043 502.277 128.057C502.458 128.072 502.633 128.127 502.789 128.22C502.945 128.313 503.077 128.441 503.175 128.594C503.274 128.746 503.336 128.919 503.356 129.1L505.627 147.794L528.09 153.226C528.821 153.404 529.16 154.194 528.844 154.991C528.528 155.788 527.676 156.291 526.942 156.114L502.951 150.312Z" fill="white"/>
<path d="M2.87003 425.462C1.28361 425.462 0 426.95 0 428.787C0 430.624 1.28362 432.109 3.21234 429.877H586.641C587.388 429.877 587.993 428.889 587.997 427.684C587.997 426.46 587.394 425.462 586.641 425.462H2.87003Z" fill="#184655"/>
<path d="M116.134 57.2578L119.195 63.3158L126.113 63.0919L129.066 70.1277L136.359 67.6156L140.049 75.4251L147.049 73.9402L151.828 80.8739L149.205 82.6814L145.634 77.4993L138.245 79.0664L134.697 71.5598L127.282 74.1114L124.023 66.348L117.269 66.5686L114.432 60.9518L110.025 62.0252L109.271 58.927L116.134 57.2578Z" fill="#F7CC7F"/>
<path d="M486.592 212.256L492.881 214.81L497.95 210.096L504.793 213.461L508.644 206.774L516.553 210.237L520.858 204.519L529.014 206.606L528.224 209.691L522.125 208.13L517.583 214.168L509.98 210.837L506.066 217.639L498.513 213.925L493.563 218.528L487.734 216.16L485.117 219.861L482.514 218.024L486.592 212.256Z" fill="#50BFA5"/>
</svg>
